<svg width="85" height="45" viewBox="0 0 85 45" fill="none" xmlns="http://www.w3.org/2000/svg">
<rect x="1" y="1" width="83" height="43" rx="7" fill="white" stroke="#EEEDF8" stroke-width="2"/>
<path opacity="0.07" d="M59 11H27C25.3 11 24 12.3 24 14V32C24 33.7 25.4 35 27 35H59C60.7 35 62 33.7 62 32V14C62 12.3 60.6 11 59 11Z" fill="black"/>
<path d="M59 12C60.1 12 61 12.9 61 14V32C61 33.1 60.1 34 59 34H27C25.9 34 25 33.1 25 32V14C25 12.9 25.9 12 27 12H59Z" fill="#006FCF"/>
<path d="M32.971 21.268L33.745 23.144H32.203L32.971 21.268ZM49.046 21.346H46.069V22.173H48.998V23.412H46.075V24.334H49.052V25.073L51.129 22.828L49.052 20.488L49.046 21.346ZM34.983 19.006H38.978L39.865 20.941L40.687 19H51.057L52.135 20.19L53.25 19H58.013L54.494 22.852L57.977 26.68H53.143L52.065 25.49L50.94 26.68H34.03L33.536 25.49H32.406L31.911 26.68H28L31.286 19H34.716L34.983 19.006ZM43.646 20.084H41.407L39.907 23.62L38.282 20.084H36.06V24.894L34 20.084H32.007L29.625 25.596H31.18L31.674 24.406H34.27L34.764 25.596H37.484V21.661L39.235 25.602H40.425L42.165 21.673V25.603H43.623L43.647 20.083L43.646 20.084ZM52.986 22.852L55.517 20.084H53.695L52.094 21.81L50.546 20.084H44.652V25.602H50.462L52.076 23.864L53.624 25.602H55.499L52.987 22.852H52.986Z" fill="white"/>
</svg>
