<svg width="20" height="20" viewBox="0 0 20 20" fill="none" xmlns="http://www.w3.org/2000/svg">
<path d="M18.3087 15.275C18.3087 15.575 18.242 15.8833 18.1003 16.1833C17.9587 16.4833 17.7753 16.7667 17.5337 17.0333C17.1253 17.4833 16.6753 17.8083 16.167 18.0167C15.667 18.225 15.1253 18.3333 14.542 18.3333C13.692 18.3333 12.7837 18.1333 11.8253 17.725C10.867 17.3167 9.90866 16.7667 8.95866 16.075C8.00033 15.375 7.09199 14.6 6.22533 13.7417C5.36699 12.875 4.59199 11.9667 3.90033 11.0167C3.21699 10.0667 2.66699 9.11667 2.26699 8.175C1.86699 7.225 1.66699 6.31667 1.66699 5.45C1.66699 4.88333 1.76699 4.34167 1.96699 3.84167C2.16699 3.33333 2.48366 2.86667 2.92533 2.45C3.45866 1.925 4.04199 1.66667 4.65866 1.66667C4.89199 1.66667 5.12533 1.71667 5.33366 1.81667C5.55033 1.91667 5.74199 2.06667 5.89199 2.28333L7.82533 5.00833C7.97533 5.21667 8.08366 5.40833 8.15866 5.59167C8.23366 5.76667 8.27533 5.94167 8.27533 6.1C8.27533 6.3 8.21699 6.5 8.10033 6.69167C7.99199 6.88333 7.83366 7.08333 7.63366 7.28333L7.00033 7.94167C6.90866 8.03333 6.86699 8.14167 6.86699 8.275C6.86699 8.34167 6.87533 8.4 6.89199 8.46667C6.91699 8.53333 6.94199 8.58333 6.95866 8.63333C7.10866 8.90833 7.36699 9.26667 7.73366 9.7C8.10866 10.1333 8.50866 10.575 8.94199 11.0167C9.39199 11.4583 9.82533 11.8667 10.267 12.2417C10.7003 12.6083 11.0587 12.8583 11.342 13.0083C11.3837 13.025 11.4337 13.05 11.492 13.075C11.5587 13.1 11.6253 13.1083 11.7003 13.1083C11.842 13.1083 11.9503 13.0583 12.042 12.9667L12.6753 12.3417C12.8837 12.1333 13.0837 11.975 13.2753 11.875C13.467 11.7583 13.6587 11.7 13.867 11.7C14.0253 11.7 14.192 11.7333 14.3753 11.8083C14.5587 11.8833 14.7503 11.9917 14.9587 12.1333L17.717 14.0917C17.9337 14.2417 18.0837 14.4167 18.1753 14.625C18.2587 14.8333 18.3087 15.0417 18.3087 15.275Z" stroke="#FF6262" stroke-width="1.5" stroke-miterlimit="10"/>
</svg>
