<svg width="35" height="34" viewBox="0 0 35 34" fill="none" xmlns="http://www.w3.org/2000/svg">
<circle cx="17.5" cy="17" r="17" fill="#354788"/>
<g clip-path="url(#clip0_2538_2861)">
<path d="M24.1346 16.4238V24.4261H10.8866V16.4238H9.65234V25.0433C9.65234 25.3841 9.9286 25.6604 10.2695 25.6604H24.7518C25.0927 25.6604 25.3689 25.3841 25.3689 25.0433V16.4238H24.1346Z" fill="white"/>
<path d="M25.8829 11.7949H9.11713C8.77626 11.7949 8.5 12.0712 8.5 12.4121V16.4441C8.5 16.7849 8.77626 17.0612 9.11713 17.0612H25.8828C26.2237 17.0612 26.5 16.7851 26.5 16.4441V12.4121C26.5 12.0712 26.2237 11.7949 25.8829 11.7949ZM25.2657 15.8271H9.7343V13.0294H25.2657V15.8271H25.2657Z" fill="white"/>
<path d="M18.107 12.2566C18.0651 12.0966 17.047 8.33984 14.0746 8.33984C12.7815 8.33984 11.7295 9.39186 11.7295 10.685C11.7295 11.9781 12.7723 13.0301 14.0541 13.0301H17.5101C17.7012 13.0301 17.8818 12.9414 17.9986 12.79C18.1154 12.6386 18.1554 12.4416 18.107 12.2566ZM14.0541 11.7958C13.4427 11.7958 12.9638 11.3079 12.9638 10.685C12.9638 10.0829 13.4725 9.57411 14.0747 9.57411C15.4289 9.57411 16.2398 10.9082 16.6296 11.7958H14.0541V11.7958Z" fill="white"/>
<path d="M20.9462 8.33984C17.9738 8.33984 16.9557 12.0966 16.9137 12.2566C16.8652 12.4416 16.9053 12.6386 17.0222 12.7901C17.139 12.9415 17.3194 13.0301 17.5107 13.0301H20.9667C22.2485 13.0301 23.2913 11.9781 23.2913 10.685C23.2913 9.39186 22.2393 8.33984 20.9462 8.33984ZM20.9668 11.7958H18.3888C18.7757 10.9082 19.5842 9.57414 20.9464 9.57414C21.5485 9.57414 22.0573 10.0829 22.0573 10.685C22.0572 11.3079 21.5783 11.7958 20.9668 11.7958Z" fill="white"/>
<path d="M18.1269 12.4121H16.8926V25.043H18.1269V12.4121Z" fill="white"/>
</g>
<defs>
<clipPath id="clip0_2538_2861">
<rect width="18" height="18" fill="white" transform="translate(8.5 8)"/>
</clipPath>
</defs>
</svg>
