<svg width="30" height="30" viewBox="0 0 30 30" fill="none" xmlns="http://www.w3.org/2000/svg">
<path fill-rule="evenodd" clip-rule="evenodd" d="M13.6362 25.5C16.765 25.5 19.3105 22.9531 19.3105 19.8C19.3105 16.6469 16.765 14.1 13.6362 14.1C10.5074 14.1 7.96191 16.6469 7.96191 19.8C7.96191 22.9531 10.5074 25.5 13.6362 25.5ZM13.6362 27C17.5984 27 20.8105 23.7764 20.8105 19.8C20.8105 15.8235 17.5984 12.6 13.6362 12.6C9.67395 12.6 6.46191 15.8235 6.46191 19.8C6.46191 23.7764 9.67395 27 13.6362 27Z" fill="#EC9922"/>
<path d="M13.5495 16.8667L14.1962 18.916H16.3603L14.6191 20.1753L15.2907 22.2L13.5495 20.9407L11.7835 22.2L12.4551 20.1753L10.7139 18.916H12.8779L13.5495 16.8667Z" fill="#FAAE41"/>
<path d="M16.0278 3.53333L11.7764 12.0667C11.7764 12.0667 14.6992 10.2 19.2164 12.8667L23.9992 3L16.0278 3.53333Z" fill="#FAAE41"/>
<path d="M5.39941 3.53333H14.168L10.1823 12.0667L5.39941 3.53333Z" fill="#FAAE41"/>
</svg>
