<svg width="30" height="30" viewBox="0 0 30 30" fill="none" xmlns="http://www.w3.org/2000/svg">
<path d="M23.4287 12.253V10.7783C24.6105 10.7783 25.5716 9.78618 25.5716 8.56624V7.09154C25.5716 6.68452 25.2512 6.35419 24.8573 6.35419H23.4287V4.87949H24.8573C26.0391 4.87949 27.0001 5.8716 27.0001 7.09154V8.56624C27.0001 10.5991 25.398 12.253 23.4287 12.253Z" fill="#EC9922"/>
<path d="M6.57143 12.253C4.60214 12.253 3 10.5991 3 8.56626V7.09157C3 5.87162 3.96107 4.87952 5.14286 4.87952H6.57143V6.35422H5.14286C4.74893 6.35422 4.42857 6.68455 4.42857 7.09157V8.56626C4.42857 9.78621 5.38964 10.7783 6.57143 10.7783V12.253Z" fill="#EC9922"/>
<path d="M8.38137 3C7.77735 3 7.28613 3.4955 7.28613 4.10602V12.9542C7.28613 17.2229 10.7252 20.6964 14.9528 20.6964C19.1804 20.6964 22.6195 17.2229 22.6195 12.9542V4.10602C22.6195 3.4955 22.1283 3 21.5242 3H8.38137Z" fill="#FFCC5B"/>
<path d="M13.8564 21.9397H16.1422V26.4217H13.8564V21.9397Z" fill="#FFCC5B"/>
<path d="M19.1139 24.8313C19.4452 24.8313 19.7139 25.1 19.7139 25.4313L19.7139 26.4C19.7139 26.7314 19.4452 27 19.1139 27L11.0282 27C10.6968 27 10.4282 26.7314 10.4282 26.4L10.4282 25.4313C10.4282 25.1 10.6968 24.8313 11.0282 24.8313L19.1139 24.8313Z" fill="#EC9922"/>
<path d="M18.9766 10.6741H16.2258L15.3751 8.02617C15.2658 7.68607 14.7899 7.68607 14.6806 8.02617L13.8306 10.6741H11.0798C10.7261 10.6741 10.5788 11.1324 10.8653 11.3427L13.0907 12.9793L12.2407 15.6272C12.1314 15.9673 12.5163 16.2504 12.8028 16.0402L15.0282 14.4036L17.2536 16.0402C17.5401 16.2504 17.925 15.9673 17.8157 15.6272L16.9658 12.9793L19.1912 11.3427C19.477 11.1324 19.3303 10.6741 18.9766 10.6741Z" fill="#EC9922"/>
<mask id="mask0_2479_1938" style="mask-type:alpha" maskUnits="userSpaceOnUse" x="7" y="3" width="16" height="18">
<path d="M8.38137 3C7.77735 3 7.28613 3.4955 7.28613 4.10602V12.9542C7.28613 17.2229 10.7252 20.6964 14.9528 20.6964C19.1804 20.6964 22.6195 17.2229 22.6195 12.9542V4.10602C22.6195 3.4955 22.1283 3 21.5242 3H8.38137Z" fill="#FFCC5B"/>
</mask>
<g mask="url(#mask0_2479_1938)">
<path opacity="0.2" d="M22.6434 7.98793L7.71484 3.07226L8.00056 2.99997C14.072 2.63852 19.7981 2.98511 20.9291 2.7831C22.1434 2.56624 22.5958 3.65058 22.6434 4.01202V7.98793Z" fill="white"/>
</g>
</svg>
