<svg width="30" height="30" viewBox="0 0 30 30" fill="none" xmlns="http://www.w3.org/2000/svg">
<path d="M13.9434 22.3591H16.0554V26.4696H13.9434V22.3591Z" fill="#FFCC5B"/>
<path d="M23.1836 15.1989V13.1569C24.8434 13.1569 26.1932 11.7832 26.1932 10.0939V8.05195C26.1932 7.48836 25.7433 7.03095 25.19 7.03095H23.1836V4.98896H25.19C26.8498 4.98896 28.1996 6.36271 28.1996 8.05195V10.0939C28.1996 12.9088 25.9494 15.1989 23.1836 15.1989Z" fill="#EC9922"/>
<path d="M6.8158 15.1989C4.04998 15.1989 1.7998 12.9088 1.7998 10.0939V8.05193C1.7998 6.3627 3.14961 4.98895 4.8094 4.98895H6.8158V7.03094H4.8094C4.25614 7.03094 3.8062 7.48834 3.8062 8.05193V10.0939C3.8062 11.7832 5.15601 13.1569 6.8158 13.1569V15.1989Z" fill="#EC9922"/>
<path d="M14.9996 23.2873C9.97755 23.2873 5.8916 19.1923 5.8916 14.158V6.04309C5.8916 4.36483 7.25325 3 8.9276 3H21.0716C22.746 3 24.1076 4.36483 24.1076 6.04309V14.158C24.1076 19.1923 20.0217 23.2873 14.9996 23.2873ZM8.9276 5.02873C8.36948 5.02873 7.9156 5.48316 7.9156 6.04309V14.158C7.9156 18.073 11.0933 21.2586 14.9996 21.2586C18.9059 21.2586 22.0836 18.073 22.0836 14.158V6.04309C22.0836 5.48316 21.6297 5.02873 21.0716 5.02873H8.9276Z" fill="#FFCC5B"/>
<path d="M18.361 25.011C18.9102 25.011 19.3555 25.4563 19.3555 26.0055C19.3555 26.5547 18.9102 27 18.361 27L11.7699 27C11.2207 27 10.7755 26.5547 10.7755 26.0055C10.7755 25.4563 11.2207 25.011 11.7699 25.011L18.361 25.011Z" fill="#EC9922"/>
<path d="M18.6748 12.0271H16.133L15.347 9.59861C15.246 9.28669 14.8063 9.28669 14.7053 9.59861L13.9199 12.0271H11.3781C11.0513 12.0271 10.9152 12.4474 11.1799 12.6403L13.2362 14.1412L12.4508 16.5697C12.3498 16.8817 12.7055 17.1413 12.9702 16.9485L15.0265 15.4475L17.0828 16.9485C17.3475 17.1413 17.7031 16.8817 17.6022 16.5697L16.8168 14.1412L18.873 12.6403C19.1371 12.4474 19.0016 12.0271 18.6748 12.0271Z" fill="#EC9922"/>
</svg>
