<svg width="24" height="24" viewBox="0 0 24 24" fill="none" xmlns="http://www.w3.org/2000/svg">
<path d="M1.63636 21.0021H5.45456V11.7294L2.95434 7.36353L0 7.63845V19.3657C0 20.2698 0.732281 21.0021 1.63636 21.0021Z" fill="#0085F7"/>
<path d="M18.5449 21.0021H22.3631C23.2672 21.0021 23.9995 20.2698 23.9995 19.3657V7.63845L21.0494 7.36353L18.545 11.7294V21.0021H18.5449Z" fill="#00A94B"/>
<path d="M18.5456 4.63856L16.3027 8.91839L18.5456 11.7295L24.0001 7.63856V5.45676C24.0001 3.43448 21.6915 2.27948 20.0728 3.49312L18.5456 4.63856Z" fill="#FFBC00"/>
<path fill-rule="evenodd" clip-rule="evenodd" d="M5.45358 11.7296L3.31641 7.21507L5.45358 4.63867L11.999 9.54776L18.5445 4.63867V11.7296L11.999 16.6387L5.45358 11.7296Z" fill="#FF4131"/>
<path d="M0 5.45676V7.63856L5.45456 11.7295V4.63856L3.92728 3.49312C2.30864 2.27948 0 3.43448 0 5.45676H0Z" fill="#E51C19"/>
</svg>
