<svg width="17" height="15" viewBox="0 0 17 15" fill="none" xmlns="http://www.w3.org/2000/svg">
<path opacity="0.53" d="M8.60462 13.7158C8.30713 13.8041 7.99042 13.8041 7.69292 13.7158C5.56262 12.9886 0.799821 9.9529 0.799821 4.8085C0.798283 4.27042 0.902757 3.73732 1.10728 3.23962C1.3118 2.74193 1.61235 2.2894 1.99179 1.90788C2.37122 1.52635 2.82209 1.22331 3.31866 1.01606C3.81522 0.808815 4.34775 0.701415 4.88582 0.699999C5.52073 0.699374 6.1469 0.848031 6.71378 1.13397C7.28065 1.41991 7.77237 1.83513 8.14922 2.3461C8.66207 1.65589 9.38001 1.1455 10.2004 0.887911C11.0208 0.630319 11.9016 0.63871 12.717 0.911887C13.5323 1.18506 14.2404 1.70904 14.74 2.40889C15.2396 3.10874 15.5051 3.94864 15.4986 4.8085C15.4986 9.9529 10.7367 12.9886 8.60462 13.7158Z" stroke="#9B98B4" stroke-width="1.3" stroke-linecap="round" stroke-linejoin="round"/>
</svg>
