<svg width="37" height="15" viewBox="0 0 37 15" fill="none" xmlns="http://www.w3.org/2000/svg">
<g clip-path="url(#clip0_2343:1142)">
<path d="M6.70478 1.93387C6.2751 2.44053 5.5876 2.84015 4.9001 2.78306C4.81416 2.098 5.15075 1.37012 5.54463 0.920552C5.97432 0.399619 6.72627 0.0285442 7.33499 0C7.40661 0.713606 7.12731 1.41294 6.70478 1.93387ZM7.32783 2.91865C6.33239 2.86156 5.48018 3.4824 5.00752 3.4824C4.5277 3.4824 3.80439 2.94719 3.01663 2.96147C1.99254 2.97574 1.04007 3.55376 0.517284 4.47431C-0.556935 6.31541 0.237987 9.04139 1.2764 10.54C1.78486 11.2821 2.39359 12.0956 3.19567 12.0671C3.95478 12.0385 4.25557 11.5747 5.17223 11.5747C6.09606 11.5747 6.36103 12.0671 7.16312 12.0528C7.99385 12.0385 8.51663 11.3107 9.0251 10.5685C9.60518 9.72645 9.8415 8.9058 9.85583 8.86299C9.8415 8.84872 8.25166 8.24215 8.23734 6.41532C8.22301 4.8882 9.49059 4.16032 9.54788 4.11751C8.83174 3.06137 7.71455 2.94719 7.32783 2.91865ZM13.0785 0.849191V11.9743H14.8116V8.17079H17.2106C19.4021 8.17079 20.9418 6.67222 20.9418 4.50285C20.9418 2.33349 19.4307 0.849191 17.2679 0.849191H13.0785ZM14.8116 2.30495H16.8096C18.3135 2.30495 19.1729 3.10419 19.1729 4.50999C19.1729 5.91579 18.3135 6.72217 16.8024 6.72217H14.8116V2.30495ZM24.1071 12.0599C25.1957 12.0599 26.2054 11.5105 26.6638 10.6399H26.6996V11.9743H28.3037V6.43673C28.3037 4.83111 27.0147 3.79638 25.031 3.79638C23.1905 3.79638 21.8298 4.84539 21.7797 6.28687H23.3409C23.4698 5.60181 24.1071 5.15224 24.9808 5.15224C26.0407 5.15224 26.6351 5.64462 26.6351 6.5509V7.16461L24.4724 7.29305C22.46 7.41437 21.3715 8.23501 21.3715 9.66223C21.3715 11.1037 22.4958 12.0599 24.1071 12.0599ZM24.5726 10.7398C23.6488 10.7398 23.0616 10.2973 23.0616 9.61941C23.0616 8.92008 23.6273 8.51332 24.7087 8.4491L26.6351 8.32778V8.95576C26.6351 9.99762 25.7471 10.7398 24.5726 10.7398ZM30.445 15C32.1351 15 32.93 14.3578 33.6247 12.4096L36.6683 3.90343H34.9066L32.8656 10.4757H32.8298L30.7888 3.90343H28.9769L31.9131 12.0029L31.7556 12.4952C31.4906 13.3302 31.0609 13.6513 30.2946 13.6513C30.1586 13.6513 29.8936 13.637 29.7862 13.6227V14.9572C29.8864 14.9857 30.3161 15 30.445 15Z" fill="black"/>
</g>
<defs>
<clipPath id="clip0_2343:1142">
<rect width="36.6667" height="15" fill="white"/>
</clipPath>
</defs>
</svg>
