<svg width="85" height="45" viewBox="0 0 85 45" fill="none" xmlns="http://www.w3.org/2000/svg">
<rect x="1" y="1" width="83" height="43" rx="7" fill="white" stroke="#EEEDF8" stroke-width="2"/>
<g clip-path="url(#clip0_2245_633)">
<path d="M30.7048 16.9339C30.2751 17.4405 29.5876 17.8402 28.9001 17.7831C28.8142 17.098 29.1507 16.3701 29.5446 15.9206C29.9743 15.3996 30.7263 15.0285 31.335 15C31.4066 15.7136 31.1273 16.4129 30.7048 16.9339ZM31.3278 17.9186C30.3324 17.8616 29.4802 18.4824 29.0075 18.4824C28.5277 18.4824 27.8044 17.9472 27.0166 17.9615C25.9925 17.9757 25.0401 18.5538 24.5173 19.4743C23.4431 21.3154 24.238 24.0414 25.2764 25.54C25.7849 26.2821 26.3936 27.0956 27.1957 27.0671C27.9548 27.0385 28.2556 26.5747 29.1722 26.5747C30.0961 26.5747 30.361 27.0671 31.1631 27.0528C31.9938 27.0385 32.5166 26.3107 33.0251 25.5685C33.6052 24.7265 33.8415 23.9058 33.8558 23.863C33.8415 23.8487 32.2517 23.2422 32.2373 21.4153C32.223 19.8882 33.4906 19.1603 33.5479 19.1175C32.8317 18.0614 31.7146 17.9472 31.3278 17.9186ZM37.0785 15.8492V26.9743H38.8116V23.1708H41.2106C43.4021 23.1708 44.9418 21.6722 44.9418 19.5029C44.9418 17.3335 43.4307 15.8492 41.2679 15.8492H37.0785ZM38.8116 17.3049H40.8096C42.3135 17.3049 43.1729 18.1042 43.1729 19.51C43.1729 20.9158 42.3135 21.7222 40.8024 21.7222H38.8116V17.3049ZM48.1071 27.0599C49.1957 27.0599 50.2054 26.5105 50.6638 25.6399H50.6996V26.9743H52.3037V21.4367C52.3037 19.8311 51.0147 18.7964 49.031 18.7964C47.1905 18.7964 45.8298 19.8454 45.7797 21.2869H47.3409C47.4698 20.6018 48.1071 20.1522 48.9808 20.1522C50.0407 20.1522 50.6351 20.6446 50.6351 21.5509V22.1646L48.4724 22.2931C46.46 22.4144 45.3715 23.235 45.3715 24.6622C45.3715 26.1037 46.4958 27.0599 48.1071 27.0599ZM48.5726 25.7398C47.6488 25.7398 47.0616 25.2973 47.0616 24.6194C47.0616 23.9201 47.6273 23.5133 48.7087 23.4491L50.6351 23.3278V23.9558C50.6351 24.9976 49.7471 25.7398 48.5726 25.7398ZM54.445 30C56.1351 30 56.93 29.3578 57.6247 27.4096L60.6683 18.9034H58.9066L56.8656 25.4757H56.8298L54.7888 18.9034H52.9769L55.9131 27.0029L55.7556 27.4952C55.4906 28.3302 55.0609 28.6513 54.2946 28.6513C54.1586 28.6513 53.8936 28.637 53.7862 28.6227V29.9572C53.8864 29.9857 54.3161 30 54.445 30Z" fill="black"/>
</g>
<defs>
<clipPath id="clip0_2245_633">
<rect width="36.6667" height="15" fill="white" transform="translate(24 15)"/>
</clipPath>
</defs>
</svg>
