<svg width="137" height="23" viewBox="0 0 137 23" fill="none" xmlns="http://www.w3.org/2000/svg">
<path d="M11.004 22.196C9.17467 22.196 7.49467 21.7667 5.964 20.908C4.43333 20.0493 3.22 18.864 2.324 17.352C1.428 15.8213 0.98 14.0947 0.98 12.172C0.98 10.268 1.428 8.56 2.324 7.048C3.22 5.51733 4.43333 4.32267 5.964 3.464C7.49467 2.60533 9.17467 2.176 11.004 2.176C12.852 2.176 14.532 2.60533 16.044 3.464C17.5747 4.32267 18.7787 5.51733 19.656 7.048C20.552 8.56 21 10.268 21 12.172C21 14.0947 20.552 15.8213 19.656 17.352C18.7787 18.864 17.5747 20.0493 16.044 20.908C14.5133 21.7667 12.8333 22.196 11.004 22.196ZM11.004 18.696C12.18 18.696 13.216 18.4347 14.112 17.912C15.008 17.3707 15.708 16.6053 16.212 15.616C16.716 14.6267 16.968 13.4787 16.968 12.172C16.968 10.8653 16.716 9.72667 16.212 8.756C15.708 7.76667 15.008 7.01067 14.112 6.488C13.216 5.96533 12.18 5.704 11.004 5.704C9.828 5.704 8.78267 5.96533 7.868 6.488C6.972 7.01067 6.272 7.76667 5.768 8.756C5.264 9.72667 5.012 10.8653 5.012 12.172C5.012 13.4787 5.264 14.6267 5.768 15.616C6.272 16.6053 6.972 17.3707 7.868 17.912C8.78267 18.4347 9.828 18.696 11.004 18.696ZM28.4804 9.708V17.212C28.4804 17.7347 28.6017 18.1173 28.8444 18.36C29.1057 18.584 29.535 18.696 30.1324 18.696H31.9524V22H29.4884C26.1844 22 24.5324 20.3947 24.5324 17.184V9.708H22.6844V6.488H24.5324V2.652H28.4804V6.488H31.9524V9.708H28.4804ZM41.6598 22.252C40.1665 22.252 38.8225 21.9253 37.6278 21.272C36.4332 20.6 35.4905 19.6573 34.7998 18.444C34.1278 17.2307 33.7918 15.8307 33.7918 14.244C33.7918 12.6573 34.1372 11.2573 34.8278 10.044C35.5372 8.83067 36.4985 7.89733 37.7118 7.244C38.9252 6.572 40.2785 6.236 41.7718 6.236C43.2652 6.236 44.6185 6.572 45.8318 7.244C47.0452 7.89733 47.9972 8.83067 48.6878 10.044C49.3972 11.2573 49.7518 12.6573 49.7518 14.244C49.7518 15.8307 49.3878 17.2307 48.6598 18.444C47.9505 19.6573 46.9798 20.6 45.7478 21.272C44.5345 21.9253 43.1718 22.252 41.6598 22.252ZM41.6598 18.836C42.3692 18.836 43.0318 18.668 43.6478 18.332C44.2825 17.9773 44.7865 17.4547 45.1598 16.764C45.5332 16.0733 45.7198 15.2333 45.7198 14.244C45.7198 12.7693 45.3278 11.64 44.5438 10.856C43.7785 10.0533 42.8358 9.652 41.7158 9.652C40.5958 9.652 39.6532 10.0533 38.8878 10.856C38.1412 11.64 37.7678 12.7693 37.7678 14.244C37.7678 15.7187 38.1318 16.8573 38.8598 17.66C39.6065 18.444 40.5398 18.836 41.6598 18.836ZM67.2713 6.488V22H63.3233V20.04C62.8193 20.712 62.1566 21.244 61.3353 21.636C60.5326 22.0093 59.6553 22.196 58.7033 22.196C57.49 22.196 56.4166 21.944 55.4833 21.44C54.55 20.9173 53.8126 20.1613 53.2713 19.172C52.7486 18.164 52.4873 16.9693 52.4873 15.588V6.488H56.4073V15.028C56.4073 16.26 56.7153 17.212 57.3313 17.884C57.9473 18.5373 58.7873 18.864 59.8513 18.864C60.934 18.864 61.7833 18.5373 62.3993 17.884C63.0153 17.212 63.3233 16.26 63.3233 15.028V6.488H67.2713ZM70.131 14.244C70.131 12.6387 70.4577 11.2387 71.111 10.044C71.7644 8.83067 72.6697 7.89733 73.827 7.244C74.9844 6.572 76.3097 6.236 77.803 6.236C79.7257 6.236 81.3124 6.72133 82.563 7.692C83.8324 8.644 84.6817 9.988 85.111 11.724H80.883C80.659 11.052 80.2764 10.5293 79.735 10.156C79.2124 9.764 78.559 9.568 77.775 9.568C76.655 9.568 75.7684 9.97867 75.115 10.8C74.4617 11.6027 74.135 12.7507 74.135 14.244C74.135 15.7187 74.4617 16.8667 75.115 17.688C75.7684 18.4907 76.655 18.892 77.775 18.892C79.3617 18.892 80.3977 18.1827 80.883 16.764H85.111C84.6817 18.444 83.8324 19.7787 82.563 20.768C81.2937 21.7573 79.707 22.252 77.803 22.252C76.3097 22.252 74.9844 21.9253 73.827 21.272C72.6697 20.6 71.7644 19.6667 71.111 18.472C70.4577 17.2587 70.131 15.8493 70.131 14.244ZM96.7188 6.264C97.8948 6.264 98.9401 6.52533 99.8548 7.048C100.769 7.552 101.479 8.308 101.983 9.316C102.505 10.3053 102.767 11.5 102.767 12.9V22H98.8468V13.432C98.8468 12.2 98.5388 11.2573 97.9228 10.604C97.3068 9.932 96.4668 9.596 95.4028 9.596C94.3201 9.596 93.4614 9.932 92.8268 10.604C92.2108 11.2573 91.9028 12.2 91.9028 13.432V22H87.9828V1.28H91.9028V8.42C92.4068 7.748 93.0788 7.22533 93.9188 6.852C94.7588 6.46 95.6921 6.264 96.7188 6.264ZM108.231 22.196C107.521 22.196 106.933 21.9813 106.467 21.552C106.019 21.104 105.795 20.5533 105.795 19.9C105.795 19.2467 106.019 18.7053 106.467 18.276C106.933 17.828 107.521 17.604 108.231 17.604C108.921 17.604 109.491 17.828 109.939 18.276C110.387 18.7053 110.611 19.2467 110.611 19.9C110.611 20.5533 110.387 21.104 109.939 21.552C109.491 21.9813 108.921 22.196 108.231 22.196ZM115.756 4.64C115.065 4.64 114.487 4.42533 114.02 3.996C113.572 3.548 113.348 2.99733 113.348 2.344C113.348 1.69067 113.572 1.14933 114.02 0.719999C114.487 0.271999 115.065 0.0479989 115.756 0.0479989C116.447 0.0479989 117.016 0.271999 117.464 0.719999C117.931 1.14933 118.164 1.69067 118.164 2.344C118.164 2.99733 117.931 3.548 117.464 3.996C117.016 4.42533 116.447 4.64 115.756 4.64ZM117.688 6.488V22H113.768V6.488H117.688ZM128.449 22.252C126.956 22.252 125.612 21.9253 124.417 21.272C123.222 20.6 122.28 19.6573 121.589 18.444C120.917 17.2307 120.581 15.8307 120.581 14.244C120.581 12.6573 120.926 11.2573 121.617 10.044C122.326 8.83067 123.288 7.89733 124.501 7.244C125.714 6.572 127.068 6.236 128.561 6.236C130.054 6.236 131.408 6.572 132.621 7.244C133.834 7.89733 134.786 8.83067 135.477 10.044C136.186 11.2573 136.541 12.6573 136.541 14.244C136.541 15.8307 136.177 17.2307 135.449 18.444C134.74 19.6573 133.769 20.6 132.537 21.272C131.324 21.9253 129.961 22.252 128.449 22.252ZM128.449 18.836C129.158 18.836 129.821 18.668 130.437 18.332C131.072 17.9773 131.576 17.4547 131.949 16.764C132.322 16.0733 132.509 15.2333 132.509 14.244C132.509 12.7693 132.117 11.64 131.333 10.856C130.568 10.0533 129.625 9.652 128.505 9.652C127.385 9.652 126.442 10.0533 125.677 10.856C124.93 11.64 124.557 12.7693 124.557 14.244C124.557 15.7187 124.921 16.8573 125.649 17.66C126.396 18.444 127.329 18.836 128.449 18.836Z" fill="#FF6262"/>
</svg>
