<svg width="20" height="20" viewBox="0 0 20 20" fill="none" xmlns="http://www.w3.org/2000/svg">
<path d="M10.672 17.462C10.3415 17.5601 9.98957 17.5601 9.65902 17.462C7.29202 16.654 2.00002 13.281 2.00002 7.565C1.99831 6.96714 2.11439 6.3748 2.34163 5.8218C2.56888 5.26881 2.90283 4.766 3.32442 4.34209C3.74602 3.91817 4.24699 3.58146 4.79872 3.35119C5.35046 3.12091 5.94216 3.00158 6.54002 3C7.24548 2.99931 7.94121 3.16448 8.57108 3.48219C9.20094 3.79991 9.74729 4.26125 10.166 4.829C10.7358 4.0621 11.5336 3.49501 12.4451 3.20879C13.3567 2.92258 14.3354 2.9319 15.2413 3.23543C16.1472 3.53896 16.934 4.12115 17.4891 4.89877C18.0442 5.67639 18.3392 6.60961 18.332 7.565C18.332 13.281 13.041 16.654 10.672 17.462Z" stroke="white" stroke-width="1.5" stroke-linecap="round" stroke-linejoin="round"/>
</svg>
