<svg width="85" height="45" viewBox="0 0 85 45" fill="none" xmlns="http://www.w3.org/2000/svg">
<rect x="1" y="1" width="83" height="43" rx="7" fill="white" stroke="#EEEDF8" stroke-width="2"/>
<path d="M37.5455 32.0909C42.8173 32.0909 47.0909 27.8173 47.0909 22.5455C47.0909 17.2736 42.8173 13 37.5455 13C32.2736 13 28 17.2736 28 22.5455C28 27.8173 32.2736 32.0909 37.5455 32.0909Z" fill="#EB001B"/>
<path d="M48.4537 32.0909C53.7255 32.0909 57.9991 27.8173 57.9991 22.5455C57.9991 17.2736 53.7255 13 48.4537 13C43.1818 13 38.9082 17.2736 38.9082 22.5455C38.9082 27.8173 43.1818 32.0909 48.4537 32.0909Z" fill="#F79E1B"/>
<path d="M47.09 22.5452C47.09 19.2725 45.4537 16.4088 42.9991 14.7725C40.5446 16.5452 38.9082 19.4088 38.9082 22.5452C38.9082 25.6816 40.5446 28.6816 42.9991 30.3179C45.4537 28.6816 47.09 25.8179 47.09 22.5452Z" fill="#FF5F00"/>
</svg>
