<svg width="30" height="30" viewBox="0 0 30 30" fill="none" xmlns="http://www.w3.org/2000/svg">
<path d="M17.529 22.017H12.4386H10.3337L8.24275 26.128C8.03972 26.5272 8.32971 27 8.77755 27H21.7001C22.1333 27 22.4237 26.555 22.2494 26.1585L20.4286 22.017H17.529Z" fill="#F5C355"/>
<path fill-rule="evenodd" clip-rule="evenodd" d="M16.9438 21.417L17.1656 12.4657L18.3652 12.4954L18.1442 21.417H20.8204L22.7989 25.917C23.1475 26.7101 22.5667 27.6 21.7003 27.6H8.77775C7.88208 27.6 7.3021 26.6543 7.70815 25.856L9.96591 21.417H11.8415L11.8817 12.4779L13.0817 12.4833L13.0415 21.417H16.9438ZM10.7019 22.617L8.77775 26.4H21.7003L20.0371 22.617H10.7019Z" fill="#FFCC5B"/>
<path fill-rule="evenodd" clip-rule="evenodd" d="M14.921 1.83049L17.1148 5.35065L22.0425 5.95622L18.6141 9.49366L19.5173 14.2767L15.0745 12.1119L10.6795 14.4845L11.4602 9.63676L7.77734 6.23249L12.852 5.44483L14.921 1.83049ZM14.9648 4.16951L13.6066 6.54207L10.4159 7.03732L12.7473 9.19231L12.2512 12.2723L15.0464 10.7633L17.8947 12.1512L17.3195 9.10515L19.5022 6.85306L16.3996 6.47178L14.9648 4.16951Z" fill="#EC9922"/>
</svg>
