<svg width="15" height="3" viewBox="0 0 15 3" fill="none" xmlns="http://www.w3.org/2000/svg">
<path d="M1.50063 3C0.672651 3 0 2.32735 0 1.50063C0 0.673904 0.672651 0 1.50063 0C2.3286 0 3.00125 0.673904 3.00125 1.50063C3.00125 2.32735 2.3286 3 1.50063 3Z" fill="#56606D"/>
<path d="M7.11293 3C6.28496 3 5.6123 2.32735 5.6123 1.50063C5.6123 0.673904 6.28496 0 7.11293 0C7.94091 0 8.61356 0.673904 8.61356 1.50063C8.61356 2.32735 7.94091 3 7.11293 3Z" fill="#56606D"/>
<path d="M12.7223 3C11.8943 3 11.2217 2.32735 11.2217 1.50063C11.2217 0.673904 11.8943 0 12.7223 0C13.5503 0 14.2229 0.673904 14.2229 1.50063C14.2229 2.32735 13.5503 3 12.7223 3Z" fill="#56606D"/>
</svg>
