<svg width="85" height="45" viewBox="0 0 85 45" fill="none" xmlns="http://www.w3.org/2000/svg">
<rect x="1" y="1" width="83" height="43" rx="7" fill="white" stroke="#EEEDF8" stroke-width="2"/>
<path d="M35.7029 18.6887H32.4975C32.3914 18.6886 32.2887 18.7254 32.2081 18.7924C32.1274 18.8594 32.0739 18.9522 32.0574 19.0541L30.761 27.0455C30.7551 27.0826 30.7574 27.1205 30.768 27.1566C30.7785 27.1927 30.797 27.2261 30.8221 27.2546C30.8473 27.2831 30.8784 27.306 30.9135 27.3217C30.9486 27.3373 30.9868 27.3454 31.0254 27.3453H32.5556C32.6618 27.3454 32.7645 27.3085 32.8452 27.2414C32.9259 27.1743 32.9793 27.0814 32.9957 26.9794L33.3454 24.824C33.3618 24.7221 33.4151 24.6292 33.4957 24.5622C33.5763 24.4951 33.6789 24.4582 33.785 24.4581H34.7997C36.9111 24.4581 38.1297 23.4647 38.448 21.4962C38.5914 20.6349 38.4541 19.9582 38.0393 19.4843C37.5837 18.9639 36.7757 18.6887 35.7029 18.6887ZM36.0727 21.6073C35.8974 22.7256 35.0186 22.7256 34.1688 22.7256H33.6852L34.0245 20.6372C34.0344 20.5761 34.0665 20.5204 34.1148 20.4803C34.1632 20.4401 34.2247 20.418 34.2884 20.418H34.5101C35.0889 20.418 35.6349 20.418 35.9171 20.7388C36.0853 20.9302 36.1369 21.2145 36.0727 21.6073ZM45.2843 21.5713H43.7493C43.6857 21.5713 43.6241 21.5934 43.5758 21.6336C43.5274 21.6738 43.4954 21.7294 43.4854 21.7905L43.4175 22.2079L43.3101 22.0567C42.9778 21.5877 42.2368 21.431 41.4973 21.431C39.8011 21.431 38.3524 22.68 38.0702 24.4321C37.9235 25.3061 38.1321 26.1419 38.642 26.7247C39.1098 27.2606 39.779 27.4839 40.5753 27.4839C41.942 27.4839 42.6999 26.6295 42.6999 26.6295L42.6315 27.0441C42.6254 27.0812 42.6276 27.1191 42.6381 27.1553C42.6485 27.1914 42.6668 27.225 42.6919 27.2535C42.7169 27.2821 42.748 27.3051 42.7831 27.3209C42.8181 27.3366 42.8563 27.3448 42.8949 27.3449H44.2775C44.3837 27.3449 44.4864 27.3081 44.5671 27.241C44.6478 27.1739 44.7012 27.081 44.7176 26.979L45.5472 21.8712C45.5533 21.8342 45.5511 21.7964 45.5407 21.7603C45.5303 21.7242 45.5119 21.6908 45.4869 21.6622C45.4619 21.6337 45.4309 21.6108 45.3959 21.5952C45.3609 21.5795 45.3228 21.5713 45.2843 21.5713ZM43.1447 24.4759C42.9966 25.3285 42.3006 25.9008 41.4129 25.9008C40.9672 25.9008 40.611 25.7618 40.3822 25.4984C40.1554 25.2369 40.0692 24.8646 40.1413 24.4499C40.2796 23.6046 40.9873 23.0136 41.8614 23.0136C42.2973 23.0136 42.6516 23.1544 42.885 23.4201C43.1189 23.6885 43.2117 24.063 43.1447 24.4759ZM53.4591 21.5713H51.9167C51.8439 21.5715 51.7723 21.5888 51.708 21.6219C51.6437 21.655 51.5888 21.7029 51.5478 21.7614L49.4204 24.8081L48.5187 21.8803C48.491 21.791 48.4345 21.7127 48.3575 21.6571C48.2805 21.6015 48.1872 21.5714 48.0912 21.5713H46.5755C46.5329 21.5712 46.491 21.581 46.4531 21.5998C46.4152 21.6187 46.3825 21.6461 46.3577 21.6797C46.3329 21.7133 46.3167 21.7522 46.3105 21.7931C46.3043 21.834 46.3082 21.8758 46.3219 21.9149L48.0209 26.7625L46.4236 28.9548C46.3952 28.9937 46.3784 29.0394 46.375 29.087C46.3715 29.1345 46.3816 29.1821 46.4041 29.2244C46.4266 29.2668 46.4607 29.3023 46.5026 29.3271C46.5445 29.3519 46.5925 29.365 46.6416 29.3649H48.1822C48.2541 29.365 48.325 29.3482 48.3887 29.3158C48.4525 29.2834 48.5072 29.2365 48.5482 29.179L53.6785 21.9792C53.7063 21.9402 53.7226 21.8946 53.7256 21.8473C53.7287 21.8 53.7183 21.7527 53.6957 21.7107C53.6731 21.6687 53.6391 21.6335 53.5974 21.6089C53.5557 21.5844 53.5079 21.5714 53.4591 21.5713Z" fill="#253B80"/>
<path d="M58.5682 18.6886H55.3623C55.2563 18.6886 55.1538 18.7254 55.0732 18.7924C54.9926 18.8594 54.9392 18.9522 54.9227 19.054L53.6263 27.0453C53.6203 27.0824 53.6226 27.1202 53.6331 27.1563C53.6435 27.1924 53.6619 27.2258 53.6869 27.2543C53.712 27.2828 53.7431 27.3057 53.7781 27.3214C53.8131 27.3371 53.8512 27.3452 53.8897 27.3452H55.5348C55.609 27.3451 55.6808 27.3192 55.7371 27.2723C55.7935 27.2253 55.8308 27.1604 55.8423 27.0891L56.2102 24.8239C56.2266 24.722 56.2799 24.6291 56.3605 24.562C56.4411 24.4949 56.5437 24.458 56.6498 24.458H57.6641C59.776 24.458 60.9941 23.4646 61.3128 21.496C61.4567 20.6348 61.3184 19.9581 60.9036 19.4842C60.4485 18.9638 59.641 18.6886 58.5682 18.6886ZM58.938 21.6072C58.7631 22.7255 57.8844 22.7255 57.0342 22.7255H56.5509L56.8907 20.6371C56.9005 20.576 56.9324 20.5203 56.9807 20.4801C57.029 20.4399 57.0905 20.4178 57.1541 20.4179H57.3758C57.9542 20.4179 58.5007 20.4179 58.7828 20.7387C58.9511 20.9301 59.0022 21.2144 58.938 21.6072ZM68.1491 21.5712H66.615C66.5514 21.571 66.4899 21.5931 66.4415 21.6333C66.3932 21.6735 66.3613 21.7293 66.3516 21.7904L66.2837 22.2078L66.1759 22.0565C65.8436 21.5876 65.1031 21.4309 64.3635 21.4309C62.6673 21.4309 61.2191 22.6799 60.9369 24.432C60.7907 25.306 60.9983 26.1417 61.5082 26.7245C61.9769 27.2604 62.6453 27.4837 63.4416 27.4837C64.8083 27.4837 65.5661 26.6293 65.5661 26.6293L65.4977 27.044C65.4916 27.0811 65.4938 27.1191 65.5043 27.1553C65.5148 27.1916 65.5333 27.2251 65.5584 27.2537C65.5835 27.2823 65.6148 27.3053 65.6499 27.321C65.6851 27.3367 65.7233 27.3448 65.762 27.3447H67.1442C67.2503 27.3447 67.3529 27.3078 67.4335 27.2407C67.5141 27.1736 67.5674 27.0807 67.5838 26.9788L68.4139 21.8711C68.4198 21.8339 68.4173 21.796 68.4067 21.7599C68.3961 21.7238 68.3776 21.6904 68.3524 21.6619C68.3273 21.6334 68.2961 21.6106 68.2609 21.5949C68.2258 21.5792 68.1877 21.5712 68.1491 21.5712ZM66.0095 24.4757C65.8623 25.3283 65.1654 25.9007 64.2777 25.9007C63.8329 25.9007 63.4758 25.7617 63.2471 25.4983C63.0202 25.2367 62.9349 24.8644 63.0062 24.4498C63.1454 23.6045 63.8521 23.0135 64.7262 23.0135C65.1621 23.0135 65.5164 23.1543 65.7499 23.4199C65.9847 23.6883 66.0775 24.0629 66.0095 24.4757ZM69.9587 18.9077L68.6431 27.0453C68.637 27.0824 68.6393 27.1202 68.6498 27.1563C68.6603 27.1924 68.6786 27.2258 68.7037 27.2543C68.7287 27.2828 68.7598 27.3057 68.7948 27.3214C68.8298 27.3371 68.8679 27.3452 68.9065 27.3452H70.2291C70.4489 27.3452 70.6354 27.1903 70.6692 26.9793L71.9665 18.9884C71.9725 18.9514 71.9702 18.9135 71.9598 18.8774C71.9493 18.8413 71.9309 18.8078 71.9059 18.7793C71.8809 18.7508 71.8498 18.7278 71.8148 18.7121C71.7798 18.6963 71.7417 18.6882 71.7031 18.6881H70.2221C70.1585 18.6883 70.097 18.7105 70.0488 18.7508C70.0005 18.791 69.9686 18.8467 69.9587 18.9077Z" fill="#179BD7"/>
<path d="M17.4512 28.8985L17.6963 27.3848L17.1503 27.3724H14.543L16.3549 16.2022C16.3603 16.1681 16.3781 16.137 16.4052 16.1146C16.4322 16.0921 16.4666 16.0799 16.5021 16.0801H20.8984C22.3579 16.0801 23.3651 16.3754 23.891 16.9582C24.1375 17.2316 24.2945 17.5173 24.3704 17.8318C24.4501 18.1617 24.4515 18.5558 24.3737 19.0366L24.3681 19.0717V19.3797L24.6146 19.5155C24.8028 19.6082 24.972 19.7336 25.1138 19.8855C25.3247 20.1193 25.4611 20.4164 25.5187 20.7686C25.5782 21.1309 25.5585 21.562 25.4611 22.05C25.3486 22.6114 25.1667 23.1004 24.9211 23.5005C24.7044 23.8589 24.4131 24.1693 24.0658 24.4119C23.7396 24.637 23.352 24.8078 22.9137 24.9172C22.4891 25.0248 22.005 25.079 21.4739 25.079H21.1318C20.8871 25.079 20.6495 25.1647 20.463 25.3182C20.2767 25.4734 20.1531 25.6879 20.1143 25.9234L20.0885 26.0596L19.6554 28.7277L19.6357 28.8256C19.6306 28.8566 19.6217 28.8721 19.6086 28.8826C19.5958 28.8927 19.58 28.8983 19.5636 28.8985H17.4512Z" fill="#253B80"/>
<path d="M24.8472 19.1071C24.8341 19.1886 24.8191 19.272 24.8022 19.3577C24.2225 22.2518 22.239 23.2515 19.7057 23.2515H18.4159C18.1061 23.2515 17.845 23.4703 17.7968 23.7674L17.1364 27.8394L16.9494 28.9936C16.9419 29.0394 16.9448 29.0862 16.9577 29.1308C16.9706 29.1755 16.9934 29.2168 17.0243 29.2521C17.0553 29.2873 17.0937 29.3156 17.137 29.3351C17.1803 29.3545 17.2274 29.3645 17.2751 29.3646H19.5628C19.8337 29.3646 20.0638 29.1732 20.1064 28.9134L20.1289 28.8004L20.5597 26.1429L20.5873 25.997C20.6295 25.7364 20.8601 25.545 21.131 25.545H21.4731C23.6896 25.545 25.4247 24.6701 25.9318 22.1383C26.1436 21.0806 26.0339 20.1975 25.4734 19.5764C25.2957 19.3843 25.0835 19.2252 24.8472 19.1071Z" fill="#179BD7"/>
<path d="M24.2409 18.8721C24.0557 18.8201 23.8674 18.7794 23.677 18.7505C23.3008 18.6943 22.9206 18.6673 22.54 18.6698H19.0942C18.9631 18.6697 18.8362 18.7152 18.7366 18.7981C18.637 18.881 18.5711 18.9959 18.551 19.1219L17.818 23.6359L17.7969 23.7676C17.8197 23.6239 17.8947 23.4929 18.0083 23.3982C18.1218 23.3036 18.2665 23.2517 18.416 23.2517H19.7058C22.2391 23.2517 24.2226 22.2515 24.8024 19.3579C24.8197 19.2722 24.8342 19.1888 24.8474 19.1073C24.6944 19.0293 24.5349 18.9639 24.3707 18.9118C24.3276 18.8979 24.2844 18.8847 24.2409 18.8721Z" fill="#222D65"/>
<path d="M18.5508 19.1215C18.5708 18.9955 18.6366 18.8806 18.7363 18.7978C18.836 18.7149 18.9629 18.6696 19.0941 18.67H22.5399C22.9481 18.67 23.3291 18.6959 23.6769 18.7506C23.9122 18.7866 24.1443 18.8404 24.371 18.9115C24.5421 18.9666 24.701 19.0318 24.8477 19.107C25.0202 18.0375 24.8463 17.3093 24.2515 16.6499C23.5958 15.924 22.4124 15.6132 20.898 15.6132H16.5017C16.1924 15.6132 15.9285 15.8319 15.8807 16.1295L14.0496 27.4146C14.041 27.467 14.0443 27.5205 14.0591 27.5716C14.0739 27.6227 14.0999 27.67 14.1353 27.7103C14.1707 27.7507 14.2147 27.7831 14.2642 27.8054C14.3137 27.8276 14.3676 27.8392 14.4222 27.8393H17.1363L17.8178 23.6356L18.5508 19.1215Z" fill="#253B80"/>
</svg>
