<svg width="59" height="15" viewBox="0 0 59 15" fill="none" xmlns="http://www.w3.org/2000/svg">
<g clip-path="url(#clip0_2343:1150)">
<path d="M22.495 3.68872H19.2712C19.1645 3.68866 19.0612 3.72544 18.9801 3.79244C18.8989 3.85945 18.8452 3.95227 18.8285 4.05418L17.5247 12.0455C17.5187 12.0826 17.5211 12.1205 17.5317 12.1566C17.5423 12.1927 17.5609 12.2262 17.5862 12.2547C17.6114 12.2832 17.6428 12.306 17.6781 12.3217C17.7134 12.3374 17.7517 12.3454 17.7906 12.3454H19.3296C19.4364 12.3454 19.5397 12.3086 19.6209 12.2415C19.702 12.1744 19.7557 12.0815 19.7723 11.9795L20.1239 9.82408C20.1404 9.72216 20.194 9.62929 20.2751 9.56221C20.3562 9.49512 20.4593 9.45822 20.5661 9.45816H21.5866C23.7102 9.45816 24.9358 8.46477 25.2558 6.4962C25.4001 5.63496 25.262 4.95826 24.8448 4.48435C24.3866 3.96396 23.5739 3.68872 22.495 3.68872ZM22.8669 6.60739C22.6906 7.72564 21.8067 7.72564 20.9521 7.72564H20.4657L20.8069 5.63723C20.8169 5.57613 20.8491 5.52049 20.8978 5.48031C20.9464 5.44013 21.0083 5.41805 21.0723 5.41805H21.2953C21.8774 5.41805 22.4266 5.41805 22.7104 5.73885C22.8796 5.93024 22.9315 6.21459 22.8669 6.60739ZM32.1314 6.57139H30.5876C30.5236 6.57139 30.4618 6.59347 30.4131 6.63365C30.3645 6.67383 30.3322 6.72948 30.3222 6.79058L30.2539 7.20798L30.146 7.0567C29.8117 6.5878 29.0665 6.43104 28.3226 6.43104C26.6167 6.43104 25.1597 7.68008 24.8759 9.43219C24.7284 10.3062 24.9381 11.1419 25.451 11.7247C25.9214 12.2606 26.5946 12.4839 27.3954 12.4839C28.77 12.4839 29.5322 11.6295 29.5322 11.6295L29.4634 12.0442C29.4573 12.0813 29.4595 12.1192 29.47 12.1553C29.4805 12.1915 29.499 12.225 29.5241 12.2536C29.5493 12.2822 29.5806 12.3051 29.6159 12.3209C29.6511 12.3367 29.6895 12.3449 29.7283 12.3449H31.1189C31.2257 12.345 31.329 12.3081 31.4101 12.241C31.4913 12.1739 31.545 12.081 31.5615 11.979L32.3959 6.87123C32.402 6.83424 32.3998 6.7964 32.3893 6.76033C32.3788 6.72425 32.3604 6.6908 32.3352 6.66229C32.3101 6.63378 32.2788 6.61089 32.2437 6.5952C32.2085 6.5795 32.1702 6.57138 32.1314 6.57139ZM29.9796 9.47593C29.8306 10.3285 29.1306 10.9009 28.2378 10.9009C27.7895 10.9009 27.4313 10.7619 27.2012 10.4985C26.9731 10.2369 26.8863 9.86463 26.9589 9.44996C27.098 8.60466 27.8098 8.01364 28.6889 8.01364C29.1273 8.01364 29.4837 8.15444 29.7184 8.42011C29.9536 8.68851 30.047 9.06308 29.9796 9.47593ZM40.3533 6.57139H38.8019C38.7288 6.5715 38.6567 6.58887 38.5921 6.62198C38.5275 6.65509 38.4721 6.70296 38.431 6.76141L36.2914 9.80813L35.3844 6.88035C35.3566 6.79105 35.2997 6.71279 35.2223 6.65715C35.1449 6.6015 35.051 6.57144 34.9545 6.57139H33.4301C33.3873 6.57128 33.3451 6.58105 33.307 6.59989C33.2689 6.61873 33.236 6.6461 33.211 6.67971C33.1861 6.71332 33.1698 6.7522 33.1636 6.79313C33.1573 6.83405 33.1612 6.87583 33.175 6.91498L34.8838 11.7626L33.2773 13.9549C33.2488 13.9937 33.2319 14.0395 33.2284 14.087C33.2249 14.1346 33.2351 14.1821 33.2577 14.2245C33.2803 14.2668 33.3146 14.3023 33.3567 14.3271C33.3988 14.3519 33.4472 14.365 33.4965 14.365H35.046C35.1183 14.3651 35.1896 14.3482 35.2537 14.3158C35.3178 14.2835 35.3729 14.2365 35.4141 14.1791L40.5739 6.97923C40.6018 6.94028 40.6182 6.89467 40.6213 6.84734C40.6243 6.80002 40.614 6.75279 40.5912 6.71077C40.5685 6.66876 40.5343 6.63355 40.4924 6.60898C40.4504 6.58441 40.4023 6.57141 40.3533 6.57139Z" fill="#253B80"/>
<path d="M45.4901 3.68857H42.2659C42.1593 3.68861 42.0561 3.72544 41.9751 3.79244C41.894 3.85943 41.8404 3.95219 41.8237 4.05402L40.5199 12.0454C40.5138 12.0824 40.5161 12.1202 40.5267 12.1563C40.5372 12.1924 40.5557 12.2258 40.5809 12.2543C40.606 12.2828 40.6373 12.3057 40.6725 12.3214C40.7077 12.3371 40.746 12.3452 40.7848 12.3452H42.4394C42.514 12.3451 42.5862 12.3192 42.6428 12.2723C42.6995 12.2254 42.737 12.1604 42.7486 12.0891L43.1186 9.8239C43.1351 9.72199 43.1888 9.62912 43.2698 9.56203C43.3509 9.49495 43.4541 9.45805 43.5608 9.45799H44.5808C46.7049 9.45799 47.93 8.4646 48.2505 6.49604C48.3953 5.63479 48.2562 4.9581 47.839 4.48419C47.3813 3.9638 46.5691 3.68857 45.4901 3.68857ZM45.8621 6.60723C45.6862 7.72548 44.8024 7.72547 43.9473 7.72547H43.4613L43.8031 5.63707C43.8129 5.57597 43.845 5.52028 43.8936 5.48008C43.9421 5.43987 44.004 5.41781 44.068 5.41789H44.2909C44.8726 5.41789 45.4223 5.41789 45.706 5.73869C45.8753 5.93008 45.9266 6.21443 45.8621 6.60723ZM55.1261 6.57123H53.5833C53.5193 6.57106 53.4574 6.59308 53.4087 6.6333C53.3601 6.67352 53.3281 6.72927 53.3184 6.79041L53.25 7.20782L53.1416 7.05653C52.8074 6.58763 52.0626 6.43088 51.3188 6.43088C49.6128 6.43088 48.1563 7.67991 47.8725 9.43201C47.7254 10.306 47.9342 11.1417 48.4471 11.7246C48.9185 12.2604 49.5907 12.4837 50.3916 12.4837C51.7661 12.4837 52.5283 11.6293 52.5283 11.6293L52.4595 12.044C52.4534 12.0811 52.4556 12.1191 52.4662 12.1554C52.4767 12.1916 52.4953 12.2251 52.5205 12.2537C52.5458 12.2824 52.5772 12.3053 52.6126 12.321C52.648 12.3367 52.6864 12.3448 52.7254 12.3447H54.1155C54.2222 12.3447 54.3253 12.3078 54.4064 12.2407C54.4875 12.1736 54.5411 12.0808 54.5576 11.9788L55.3924 6.87107C55.3983 6.83396 55.3959 6.79605 55.3852 6.75995C55.3745 6.72385 55.3559 6.6904 55.3306 6.66192C55.3053 6.63343 55.2739 6.61057 55.2386 6.59492C55.2033 6.57927 55.1649 6.57118 55.1261 6.57123ZM52.9742 9.47576C52.8262 10.3283 52.1253 10.9007 51.2325 10.9007C50.7852 10.9007 50.426 10.7617 50.1959 10.4983C49.9678 10.2368 49.882 9.86446 49.9536 9.44979C50.0936 8.60449 50.8045 8.01347 51.6836 8.01347C52.122 8.01347 52.4784 8.15427 52.7131 8.41994C52.9493 8.68834 53.0426 9.06291 52.9742 9.47576ZM56.9461 3.90775L55.6229 12.0454C55.6169 12.0824 55.6192 12.1202 55.6297 12.1563C55.6402 12.1924 55.6587 12.2258 55.6839 12.2543C55.7091 12.2828 55.7403 12.3057 55.7756 12.3214C55.8108 12.3371 55.8491 12.3452 55.8878 12.3452H57.2181C57.4392 12.3452 57.6268 12.1903 57.6607 11.9793L58.9655 3.98841C58.9715 3.95137 58.9692 3.9135 58.9587 3.8774C58.9482 3.84131 58.9297 3.80784 58.9045 3.77931C58.8794 3.75077 58.8481 3.72785 58.8129 3.71211C58.7777 3.69636 58.7394 3.68818 58.7006 3.68811H57.211C57.1471 3.68833 57.0853 3.71055 57.0367 3.7508C56.9882 3.79104 56.9561 3.84668 56.9461 3.90775Z" fill="#179BD7"/>
<path d="M4.13781 13.8985L4.38435 12.3847L3.83519 12.3724H1.21289L3.03525 1.2022C3.04068 1.16807 3.05861 1.13696 3.08578 1.11455C3.11295 1.09213 3.14755 1.0799 3.18327 1.08008H7.60483C9.07271 1.08008 10.0857 1.37536 10.6146 1.95819C10.8625 2.2316 11.0205 2.51731 11.0968 2.83174C11.177 3.16165 11.1784 3.55582 11.1001 4.03657L11.0945 4.07166V4.3797L11.3424 4.5155C11.5317 4.6082 11.7018 4.73361 11.8444 4.88551C12.0566 5.11928 12.1937 5.41639 12.2517 5.76863C12.3116 6.1309 12.2918 6.56198 12.1937 7.05002C12.0806 7.61143 11.8977 8.10038 11.6507 8.50047C11.4328 8.85889 11.1397 9.16932 10.7904 9.41184C10.4623 9.63695 10.0725 9.80783 9.63177 9.9172C9.2047 10.0247 8.71776 10.079 8.18368 10.079H7.83958C7.59351 10.079 7.35452 10.1646 7.16691 10.3182C6.97957 10.4734 6.85529 10.6879 6.81621 10.9234L6.79028 11.0596L6.35472 13.7276L6.33492 13.8256C6.32974 13.8566 6.32078 13.8721 6.30758 13.8826C6.2948 13.8927 6.27885 13.8983 6.26233 13.8985H4.13781Z" fill="#253B80"/>
<path d="M11.5762 4.10706C11.563 4.18862 11.548 4.27201 11.531 4.35768C10.9479 7.25175 8.953 8.25152 6.40518 8.25152H5.10794C4.79635 8.25152 4.53379 8.47025 4.48524 8.76736L3.82106 12.8394L3.63298 13.9936C3.62549 14.0394 3.62835 14.0862 3.64137 14.1308C3.65438 14.1755 3.67725 14.2168 3.70838 14.2521C3.73952 14.2873 3.77819 14.3156 3.82173 14.335C3.86527 14.3545 3.91264 14.3645 3.96059 14.3646H6.26141C6.53387 14.3646 6.76531 14.1732 6.80821 13.9134L6.83084 13.8004L7.26404 11.1429L7.29185 10.997C7.33427 10.7364 7.56619 10.545 7.83865 10.545H8.18276C10.4119 10.545 12.157 9.67008 12.667 7.13828C12.8801 6.08063 12.7698 5.19751 12.206 4.57641C12.0273 4.38428 11.8139 4.22523 11.5762 4.10706Z" fill="#179BD7"/>
<path d="M10.9674 3.87216C10.7812 3.8201 10.5918 3.77946 10.4003 3.7505C10.0219 3.69428 9.63951 3.66731 9.25671 3.66984H5.79111C5.65922 3.66974 5.53165 3.71526 5.43145 3.79817C5.33125 3.88107 5.26504 3.9959 5.24478 4.12188L4.50754 8.63591L4.48633 8.7676C4.5093 8.6239 4.58471 8.49289 4.69892 8.39828C4.81314 8.30366 4.95861 8.25169 5.10902 8.25176H6.40627C8.95409 8.25176 10.949 7.25153 11.5321 4.35793C11.5495 4.27226 11.5641 4.18887 11.5773 4.1073C11.4235 4.0293 11.2631 3.96391 11.0979 3.91181C11.0546 3.89792 11.0111 3.8847 10.9674 3.87216Z" fill="#222D65"/>
<path d="M5.24374 4.12149C5.26382 3.99546 5.33 3.88059 5.43025 3.79772C5.5305 3.71486 5.65817 3.6695 5.79007 3.6699H9.25567C9.66624 3.6699 10.0495 3.69587 10.3992 3.75056C10.6359 3.78652 10.8693 3.8403 11.0974 3.91141C11.2694 3.96655 11.4292 4.03172 11.5768 4.1069C11.7502 3.03741 11.5753 2.30922 10.9772 1.64984C10.3177 0.923937 9.12745 0.613159 7.60442 0.613159H3.18285C2.87174 0.613159 2.60635 0.831888 2.55827 1.12945L0.716585 12.4145C0.708007 12.4669 0.711271 12.5205 0.726152 12.5715C0.741033 12.6226 0.767179 12.6699 0.80279 12.7103C0.838402 12.7506 0.882634 12.7831 0.932444 12.8053C0.982254 12.8276 1.03646 12.8391 1.09133 12.8392H3.82111L4.50649 8.63551L5.24374 4.12149Z" fill="#253B80"/>
</g>
<defs>
<clipPath id="clip0_2343:1150">
<rect width="58.3333" height="15" fill="white" transform="translate(0.666992)"/>
</clipPath>
</defs>
</svg>
