<svg width="24" height="24" viewBox="0 0 24 24" fill="none" xmlns="http://www.w3.org/2000/svg">
<path d="M12 24C18.6274 24 24 18.6274 24 12C24 5.37258 18.6274 0 12 0C5.37258 0 0 5.37258 0 12C0 18.6274 5.37258 24 12 24Z" fill="#FF4500"/>
<path d="M19.9993 12C19.9993 11.0316 19.2133 10.2457 18.2449 10.2457C17.7677 10.2457 17.3466 10.4281 17.0379 10.7369C15.8449 9.88074 14.1887 9.31934 12.3642 9.24916L13.1642 5.50179L15.7607 6.04916C15.7887 6.70881 16.3361 7.24214 17.0098 7.24214C17.6975 7.24214 18.2589 6.68074 18.2589 5.99302C18.2589 5.3053 17.6975 4.7439 17.0098 4.7439C16.5186 4.7439 16.0975 5.0246 15.901 5.44565L12.9958 4.82811C12.9116 4.81407 12.8273 4.82811 12.7572 4.87021C12.687 4.91232 12.6449 4.98249 12.6168 5.0667L11.7326 9.24916C9.86594 9.3053 8.19577 9.85267 6.98875 10.7369C6.67998 10.4421 6.24489 10.2457 5.78173 10.2457C4.81331 10.2457 4.02734 11.0316 4.02734 12C4.02734 12.7158 4.4484 13.3193 5.06594 13.6C5.03787 13.7685 5.02383 13.9509 5.02383 14.1334C5.02383 16.8281 8.15366 19.0035 12.0273 19.0035C15.901 19.0035 19.0309 16.8281 19.0309 14.1334C19.0309 13.9509 19.0168 13.7825 18.9887 13.6141C19.5642 13.3334 19.9993 12.7158 19.9993 12ZM7.99927 13.2492C7.99927 12.5614 8.56068 12 9.2484 12C9.93612 12 10.4975 12.5614 10.4975 13.2492C10.4975 13.9369 9.93612 14.4983 9.2484 14.4983C8.56068 14.4983 7.99927 13.9369 7.99927 13.2492ZM14.9747 16.5474C14.1186 17.4035 12.4905 17.4597 12.0133 17.4597C11.5361 17.4597 9.89401 17.3895 9.05191 16.5474C8.92559 16.4211 8.92559 16.2106 9.05191 16.0842C9.17822 15.9579 9.38875 15.9579 9.51506 16.0842C10.0484 16.6176 11.1993 16.8141 12.0273 16.8141C12.8554 16.8141 13.9923 16.6176 14.5396 16.0842C14.6659 15.9579 14.8765 15.9579 15.0028 16.0842C15.101 16.2246 15.101 16.4211 14.9747 16.5474ZM14.7502 14.4983C14.0624 14.4983 13.501 13.9369 13.501 13.2492C13.501 12.5614 14.0624 12 14.7502 12C15.4379 12 15.9993 12.5614 15.9993 13.2492C15.9993 13.9369 15.4379 14.4983 14.7502 14.4983Z" fill="white"/>
</svg>
