<svg width="30" height="30" viewBox="0 0 30 30" fill="none" xmlns="http://www.w3.org/2000/svg">
<path d="M14.5127 17.9896H15.3707V19.6595H14.5127V17.9896Z" fill="#FFCC5B"/>
<path d="M14.9417 18.3667C12.9029 18.3667 11.2441 16.7031 11.2441 14.6579V11.3613C11.2441 10.6795 11.7969 10.125 12.4767 10.125H17.4067C18.0864 10.125 18.6392 10.6795 18.6392 11.3613V14.6579C18.6392 16.7031 16.9805 18.3667 14.9417 18.3667ZM12.4767 10.9492C12.2501 10.9492 12.0658 11.1338 12.0658 11.3613V14.6579C12.0658 16.2484 13.3558 17.5425 14.9417 17.5425C16.5275 17.5425 17.8175 16.2484 17.8175 14.6579V11.3613C17.8175 11.1338 17.6333 10.9492 17.4067 10.9492H12.4767Z" fill="#FFCC5B"/>
<path d="M16.306 19.067C16.5291 19.067 16.71 19.2479 16.71 19.471C16.71 19.6941 16.5291 19.875 16.306 19.875L13.6308 19.875C13.4077 19.875 13.2268 19.6941 13.2268 19.471C13.2268 19.2479 13.4077 19.067 13.6308 19.067L16.306 19.067Z" fill="#EC9922"/>
<path d="M16.4334 13.7922H15.4016L15.0825 12.8056C15.0415 12.6789 14.863 12.6789 14.822 12.8056L14.5031 13.7922H13.4712C13.3386 13.7922 13.2833 13.963 13.3908 14.0413L14.2255 14.6511L13.9067 15.6377C13.8657 15.7644 14.0101 15.8698 14.1176 15.7915L14.9523 15.1817L15.7871 15.7915C15.8946 15.8698 16.039 15.7644 15.998 15.6377L15.6791 14.6511L16.5139 14.0413C16.6211 13.963 16.5661 13.7922 16.4334 13.7922Z" fill="#EC9922"/>
<path fill-rule="evenodd" clip-rule="evenodd" d="M25.7534 10.151L23.4654 10.884C23.1656 10.98 23.0005 11.3009 23.0965 11.6007C23.1925 11.9004 23.5134 12.0656 23.8132 11.9696L26.1011 11.2366C26.4009 11.1406 26.5661 10.8197 26.47 10.5199C26.374 10.2202 26.0531 10.055 25.7534 10.151ZM23.4105 10.7126C23.016 10.839 22.7987 11.2611 22.9251 11.6556C23.0515 12.05 23.4736 12.2673 23.8681 12.141L26.156 11.408C26.5505 11.2817 26.7678 10.8595 26.6414 10.465C26.5151 10.0706 26.0929 9.85326 25.6984 9.97963L23.4105 10.7126Z" fill="#EC9922"/>
<path fill-rule="evenodd" clip-rule="evenodd" d="M25.7529 8.65101L23.2554 9.45109C22.9557 9.54712 22.7905 9.86798 22.8865 10.1678C22.9826 10.4675 23.3034 10.6327 23.6032 10.5366L26.1007 9.73656C26.4004 9.64053 26.5656 9.31967 26.4696 9.0199C26.3735 8.72013 26.0527 8.55497 25.7529 8.65101ZM23.2005 9.27967C22.8061 9.40603 22.5888 9.82823 22.7151 10.2227C22.8415 10.6171 23.2637 10.8344 23.6581 10.7081L26.1556 9.90798C26.55 9.78162 26.7673 9.35942 26.641 8.96498C26.5146 8.57054 26.0924 8.35322 25.698 8.47959L23.2005 9.27967Z" fill="#EC9922"/>
<path fill-rule="evenodd" clip-rule="evenodd" d="M25.7529 7.15101L23.2554 7.95109C22.9557 8.04712 22.7905 8.36798 22.8865 8.66775C22.9826 8.96752 23.3034 9.13268 23.6032 9.03664L26.1007 8.23656C26.4004 8.14053 26.5656 7.81967 26.4696 7.5199C26.3735 7.22013 26.0527 7.05497 25.7529 7.15101ZM23.2005 7.77967C22.8061 7.90603 22.5888 8.32823 22.7151 8.72267C22.8415 9.11711 23.2637 9.33443 23.6581 9.20806L26.1556 8.40798C26.55 8.28162 26.7673 7.85942 26.641 7.46498C26.5146 7.07054 26.0924 6.85322 25.698 6.97959L23.2005 7.77967Z" fill="#EC9922"/>
<path fill-rule="evenodd" clip-rule="evenodd" d="M25.7538 11.651L23.9009 12.2445C23.6012 12.3406 23.436 12.6614 23.5321 12.9612C23.6281 13.261 23.9489 13.4261 24.2487 13.3301L26.1015 12.7365C26.4013 12.6405 26.5665 12.3196 26.4704 12.0199C26.3744 11.7201 26.0535 11.5549 25.7538 11.651ZM23.846 12.0731C23.4516 12.1995 23.2343 12.6217 23.3606 13.0161C23.487 13.4105 23.9092 13.6279 24.3036 13.5015L26.1565 12.9079C26.5509 12.7816 26.7682 12.3594 26.6419 11.9649C26.5155 11.5705 26.0933 11.3532 25.6989 11.4795L23.846 12.0731Z" fill="#EC9922"/>
<path fill-rule="evenodd" clip-rule="evenodd" d="M25.7525 13.1504L24.4058 13.5821C24.106 13.6782 23.9408 13.9991 24.0368 14.2989C24.1328 14.5987 24.4535 14.7638 24.7533 14.6677L26.1 14.236C26.3998 14.1399 26.565 13.819 26.469 13.5192C26.373 13.2194 26.0522 13.0543 25.7525 13.1504ZM24.3509 13.4107C23.9565 13.5371 23.7391 13.9594 23.8654 14.3539C23.9917 14.7483 24.4138 14.9656 24.8082 14.8392L26.1549 14.4074C26.5493 14.281 26.7667 13.8587 26.6404 13.4642C26.5141 13.0698 26.092 12.8525 25.6976 12.9789L24.3509 13.4107Z" fill="#EC9922"/>
<path fill-rule="evenodd" clip-rule="evenodd" d="M25.8832 14.6504L24.854 14.9803C24.5542 15.0764 24.3891 15.3973 24.485 15.6971C24.581 15.9969 24.9018 16.162 25.2015 16.066L26.2308 15.736C26.5305 15.6399 26.6957 15.319 26.5998 15.0192C26.5038 14.7194 26.183 14.5543 25.8832 14.6504ZM24.7991 14.8089C24.4047 14.9353 24.1873 15.3576 24.3136 15.7521C24.4399 16.1466 24.862 16.3638 25.2564 16.2374L26.2857 15.9074C26.6801 15.781 26.8974 15.3587 26.7712 14.9642C26.6449 14.5698 26.2228 14.3525 25.8284 14.4789L24.7991 14.8089Z" fill="#EC9922"/>
<path fill-rule="evenodd" clip-rule="evenodd" d="M25.8832 16.1503L25.2573 16.351C24.9576 16.4471 24.7924 16.768 24.8883 17.0678C24.9843 17.3676 25.3051 17.5327 25.6049 17.4366L26.2308 17.236C26.5305 17.1399 26.6957 16.8189 26.5998 16.5192C26.5038 16.2194 26.183 16.0542 25.8832 16.1503ZM25.2024 16.1796C24.808 16.306 24.5907 16.7283 24.7169 17.1228C24.8432 17.5172 25.2653 17.7345 25.6597 17.6081L26.2857 17.4074C26.6801 17.2809 26.8974 16.8587 26.7712 16.4642C26.6449 16.0697 26.2228 15.8525 25.8284 15.9789L25.2024 16.1796Z" fill="#EC9922"/>
<path fill-rule="evenodd" clip-rule="evenodd" d="M25.8832 17.6504L25.5483 17.7577C25.2486 17.8538 25.0834 18.1747 25.1794 18.4745C25.2753 18.7743 25.5961 18.9394 25.8959 18.8433L26.2307 18.736C26.5305 18.6399 26.6957 18.319 26.5997 18.0192C26.5037 17.7194 26.1829 17.5543 25.8832 17.6504ZM25.4934 17.5863C25.099 17.7127 24.8817 18.135 25.008 18.5295C25.1342 18.9239 25.5563 19.1412 25.9508 19.0148L26.2856 18.9074C26.68 18.781 26.8974 18.3587 26.7711 17.9642C26.6448 17.5698 26.2227 17.3525 25.8283 17.4789L25.4934 17.5863Z" fill="#EC9922"/>
<path fill-rule="evenodd" clip-rule="evenodd" d="M4.24607 10.1511L6.54241 10.8867C6.84218 10.9827 7.00734 11.3036 6.91131 11.6034C6.81527 11.9031 6.49441 12.0683 6.19464 11.9723L3.8983 11.2366C3.59853 11.1406 3.43337 10.8197 3.52941 10.52C3.62544 10.2202 3.9463 10.055 4.24607 10.1511ZM6.59733 10.7153C6.99177 10.8417 7.20909 11.2638 7.08272 11.6583C6.95636 12.0527 6.53417 12.27 6.13973 12.1437L3.84339 11.408C3.44895 11.2817 3.23163 10.8595 3.35799 10.465C3.48435 10.0706 3.90655 9.85328 4.30099 9.97964L6.59733 10.7153Z" fill="#EC9922"/>
<path fill-rule="evenodd" clip-rule="evenodd" d="M4.24613 8.65101L6.74358 9.45109C7.04335 9.54712 7.20851 9.86798 7.11248 10.1678C7.01644 10.4675 6.69558 10.6327 6.39581 10.5366L3.89836 9.73656C3.59859 9.64053 3.43343 9.31967 3.52946 9.0199C3.6255 8.72013 3.94636 8.55497 4.24613 8.65101ZM6.7985 9.27967C7.19294 9.40603 7.41026 9.82823 7.2839 10.2227C7.15753 10.6171 6.73534 10.8344 6.3409 10.7081L3.84344 9.90798C3.449 9.78162 3.23168 9.35942 3.35805 8.96498C3.48441 8.57054 3.9066 8.35322 4.30104 8.47959L6.7985 9.27967Z" fill="#EC9922"/>
<path fill-rule="evenodd" clip-rule="evenodd" d="M4.24613 7.15101L6.74358 7.95109C7.04335 8.04712 7.20851 8.36798 7.11248 8.66775C7.01644 8.96752 6.69558 9.13268 6.39581 9.03664L3.89836 8.23656C3.59859 8.14053 3.43343 7.81967 3.52946 7.5199C3.6255 7.22013 3.94636 7.05497 4.24613 7.15101ZM6.7985 7.77967C7.19294 7.90603 7.41026 8.32823 7.2839 8.72267C7.15753 9.11711 6.73534 9.33443 6.3409 9.20806L3.84344 8.40798C3.449 8.28162 3.23168 7.85942 3.35805 7.46498C3.48441 7.07054 3.9066 6.85322 4.30104 6.97959L6.7985 7.77967Z" fill="#EC9922"/>
<path fill-rule="evenodd" clip-rule="evenodd" d="M4.24576 11.6509L5.96331 12.2012C6.26308 12.2972 6.42824 12.6181 6.3322 12.9178C6.23617 13.2176 5.91531 13.3828 5.61554 13.2867L3.89799 12.7365C3.59822 12.6405 3.43306 12.3196 3.52909 12.0198C3.62513 11.7201 3.94599 11.5549 4.24576 11.6509ZM6.01822 12.0298C6.41266 12.1561 6.62998 12.5783 6.50362 12.9728C6.37726 13.3672 5.95507 13.5845 5.56063 13.4582L3.84307 12.9079C3.44863 12.7816 3.23131 12.3594 3.35768 11.9649C3.48404 11.5705 3.90623 11.3532 4.30067 11.4795L6.01822 12.0298Z" fill="#EC9922"/>
<path fill-rule="evenodd" clip-rule="evenodd" d="M4.24635 13.1504L5.45265 13.5371C5.7524 13.6332 5.91759 13.9541 5.82162 14.2539C5.72565 14.5537 5.40485 14.7188 5.1051 14.6227L3.8988 14.236C3.59905 14.1399 3.43386 13.819 3.52983 13.5192C3.6258 13.2194 3.9466 13.0543 4.24635 13.1504ZM5.50753 13.3657C5.90194 13.4921 6.11931 13.9144 5.99303 14.3088C5.86674 14.7033 5.44464 14.9206 5.05022 14.7941L3.84392 14.4074C3.44951 14.281 3.23214 13.8587 3.35842 13.4642C3.48471 13.0698 3.90681 12.8525 4.30123 12.9789L5.50753 13.3657Z" fill="#EC9922"/>
<path fill-rule="evenodd" clip-rule="evenodd" d="M4.11616 14.6504L4.98683 14.9295C5.28658 15.0256 5.45177 15.3465 5.3558 15.6463C5.25982 15.9461 4.93903 16.1112 4.63928 16.0151L3.76861 15.736C3.46886 15.6399 3.30367 15.319 3.39964 15.0192C3.49561 14.7194 3.81641 14.5543 4.11616 14.6504ZM5.04171 14.7581C5.43612 14.8845 5.65349 15.3068 5.5272 15.7012C5.40092 16.0957 4.97881 16.313 4.5844 16.1865L3.71373 15.9074C3.31932 15.781 3.10195 15.3587 3.22823 14.9642C3.35452 14.5698 3.77662 14.3525 4.17104 14.4789L5.04171 14.7581Z" fill="#EC9922"/>
<path fill-rule="evenodd" clip-rule="evenodd" d="M4.11506 16.1503L4.77394 16.3616C5.07369 16.4577 5.23888 16.7786 5.14291 17.0784C5.04693 17.3782 4.72614 17.5433 4.42639 17.4472L3.76751 17.236C3.46777 17.1399 3.30257 16.819 3.39855 16.5192C3.49452 16.2194 3.81531 16.0542 4.11506 16.1503ZM4.82882 16.1901C5.22323 16.3166 5.4406 16.7389 5.31431 17.1333C5.18803 17.5278 4.76592 17.7451 4.37151 17.6186L3.71263 17.4074C3.31822 17.281 3.10086 16.8587 3.22714 16.4642C3.35342 16.0697 3.77553 15.8525 4.16994 15.9789L4.82882 16.1901Z" fill="#EC9922"/>
<path fill-rule="evenodd" clip-rule="evenodd" d="M4.11585 17.6504L4.4507 17.7577C4.75044 17.8538 4.91564 18.1747 4.81966 18.4745C4.72369 18.7743 4.4029 18.9394 4.10315 18.8433L3.7683 18.736C3.46855 18.6399 3.30336 18.319 3.39933 18.0192C3.4953 17.7194 3.8161 17.5543 4.11585 17.6504ZM4.50558 17.5863C4.89999 17.7127 5.11735 18.135 4.99107 18.5295C4.86479 18.9239 4.44268 19.1412 4.04827 19.0148L3.71342 18.9074C3.319 18.781 3.10164 18.3587 3.22792 17.9642C3.3542 17.5698 3.77631 17.3525 4.17073 17.4789L4.50558 17.5863Z" fill="#EC9922"/>
<path fill-rule="evenodd" clip-rule="evenodd" d="M5.70211 18.7624L14.2859 25.0033C14.7067 25.3092 15.2765 25.3092 15.6973 25.0033L24.2811 18.7624C24.7014 18.4569 24.8772 17.9155 24.7168 17.4213L21.4374 7.32121C21.2768 6.82667 20.816 6.4918 20.296 6.4918L9.68718 6.4918C9.16722 6.4918 8.70641 6.82667 8.54584 7.32122L5.26643 17.4213C5.10595 17.9155 5.28182 18.4569 5.70211 18.7624ZM13.5803 25.9739C14.4217 26.5857 15.5615 26.5857 16.4029 25.9739L24.9868 19.733C25.8273 19.1219 26.1791 18.0391 25.8581 17.0507L22.5787 6.95063C22.2576 5.96154 21.3359 5.2918 20.296 5.2918L9.68718 5.2918C8.64726 5.2918 7.72564 5.96153 7.4045 6.95063L4.12508 17.0507C3.80414 18.0391 4.15586 19.1219 4.99644 19.733L13.5803 25.9739Z" fill="#EC9922"/>
</svg>
