<svg width="35" height="15" viewBox="0 0 35 15" fill="none" xmlns="http://www.w3.org/2000/svg">
<path d="M2.45972 5.85171C2.45972 5.46293 2.77083 5.3134 3.28611 5.3134C4.025 5.3134 4.95833 5.54268 5.69722 5.9514V3.60872C4.89028 3.27975 4.09306 3.15016 3.28611 3.15016C1.3125 3.15016 0 4.20685 0 5.97134C0 8.72274 3.69444 8.28411 3.69444 9.47041C3.69444 9.92897 3.30556 10.0785 2.76111 10.0785C1.95417 10.0785 0.923611 9.73956 0.106944 9.281V11.6536C1.01111 12.0523 1.925 12.2218 2.76111 12.2218C4.78333 12.2218 6.17361 11.195 6.17361 9.41059C6.16389 6.43988 2.45972 6.96822 2.45972 5.85171ZM9.03195 1.15639L6.65972 1.67477L6.65 9.65981C6.65 11.1352 7.72917 12.2218 9.16806 12.2218C9.96528 12.2218 10.5486 12.0723 10.8694 11.8928V9.86916C10.5583 9.99875 9.02222 10.4573 9.02222 8.98193V5.44299H10.8694V3.31963H9.02222L9.03195 1.15639ZM13.8931 4.05732L13.7375 3.31963H11.6375V12.0424H14.0681V6.13084C14.6417 5.36324 15.6139 5.5028 15.9153 5.61246V3.31963C15.6042 3.2 14.4667 2.98069 13.8931 4.05732ZM16.5083 3.31963H18.9486V12.0424H16.5083V3.31963ZM16.5083 2.56199L18.9486 2.02368V0L16.5083 0.528349V2.56199ZM24.0236 3.15016C23.0708 3.15016 22.4583 3.60872 22.1181 3.92773L21.9917 3.30966H19.8528V14.9333L22.2833 14.405L22.2931 11.5838C22.6431 11.843 23.1583 12.2118 24.0139 12.2118C25.7542 12.2118 27.3389 10.7763 27.3389 7.6162C27.3292 4.72523 25.725 3.15016 24.0236 3.15016ZM23.4403 10.0187C22.8667 10.0187 22.5264 9.80935 22.2931 9.55016L22.2833 5.85171C22.5361 5.56262 22.8861 5.36324 23.4403 5.36324C24.325 5.36324 24.9375 6.38006 24.9375 7.68598C24.9375 9.02181 24.3347 10.0187 23.4403 10.0187ZM35 7.71589C35 5.16386 33.7944 3.15016 31.4903 3.15016C29.1764 3.15016 27.7764 5.16386 27.7764 7.69595C27.7764 10.6966 29.4292 12.2118 31.8014 12.2118C32.9583 12.2118 33.8333 11.9427 34.4944 11.5639V9.57009C33.8333 9.90903 33.075 10.1184 32.1125 10.1184C31.1694 10.1184 30.3333 9.77944 30.2264 8.60312H34.9806C34.9806 8.47352 35 7.95514 35 7.71589ZM30.1972 6.76885C30.1972 5.64237 30.8681 5.17383 31.4806 5.17383C32.0736 5.17383 32.7056 5.64237 32.7056 6.76885H30.1972Z" fill="#6772E5"/>
</svg>
