<svg width="85" height="45" viewBox="0 0 85 45" fill="none" xmlns="http://www.w3.org/2000/svg">
<rect x="1" y="1" width="83" height="43" rx="7" fill="white" stroke="#EEEDF8" stroke-width="2"/>
<path d="M27.4597 20.8517C27.4597 20.4629 27.7708 20.3134 28.2861 20.3134C29.025 20.3134 29.9583 20.5427 30.6972 20.9514V18.6087C29.8903 18.2798 29.0931 18.1502 28.2861 18.1502C26.3125 18.1502 25 19.2069 25 20.9713C25 23.7227 28.6944 23.2841 28.6944 24.4704C28.6944 24.929 28.3056 25.0785 27.7611 25.0785C26.9542 25.0785 25.9236 24.7396 25.1069 24.281V26.6536C26.0111 27.0523 26.925 27.2218 27.7611 27.2218C29.7833 27.2218 31.1736 26.195 31.1736 24.4106C31.1639 21.4399 27.4597 21.9682 27.4597 20.8517ZM34.0319 16.1564L31.6597 16.6748L31.65 24.6598C31.65 26.1352 32.7292 27.2218 34.1681 27.2218C34.9653 27.2218 35.5486 27.0723 35.8694 26.8928V24.8692C35.5583 24.9988 34.0222 25.4573 34.0222 23.9819V20.443H35.8694V18.3196H34.0222L34.0319 16.1564ZM38.8931 19.0573L38.7375 18.3196H36.6375V27.0424H39.0681V21.1308C39.6417 20.3632 40.6139 20.5028 40.9153 20.6125V18.3196C40.6042 18.2 39.4667 17.9807 38.8931 19.0573ZM41.5083 18.3196H43.9486V27.0424H41.5083V18.3196ZM41.5083 17.562L43.9486 17.0237V15L41.5083 15.5283V17.562ZM49.0236 18.1502C48.0708 18.1502 47.4583 18.6087 47.1181 18.9277L46.9917 18.3097H44.8528V29.9333L47.2833 29.405L47.2931 26.5838C47.6431 26.843 48.1583 27.2118 49.0139 27.2118C50.7542 27.2118 52.3389 25.7763 52.3389 22.6162C52.3292 19.7252 50.725 18.1502 49.0236 18.1502ZM48.4403 25.0187C47.8667 25.0187 47.5264 24.8093 47.2931 24.5502L47.2833 20.8517C47.5361 20.5626 47.8861 20.3632 48.4403 20.3632C49.325 20.3632 49.9375 21.3801 49.9375 22.686C49.9375 24.0218 49.3347 25.0187 48.4403 25.0187ZM60 22.7159C60 20.1639 58.7944 18.1502 56.4903 18.1502C54.1764 18.1502 52.7764 20.1639 52.7764 22.696C52.7764 25.6966 54.4292 27.2118 56.8014 27.2118C57.9583 27.2118 58.8333 26.9427 59.4944 26.5639V24.5701C58.8333 24.909 58.075 25.1184 57.1125 25.1184C56.1694 25.1184 55.3333 24.7794 55.2264 23.6031H59.9806C59.9806 23.4735 60 22.9551 60 22.7159ZM55.1972 21.7688C55.1972 20.6424 55.8681 20.1738 56.4806 20.1738C57.0736 20.1738 57.7056 20.6424 57.7056 21.7688H55.1972Z" fill="#6772E5"/>
</svg>
