<svg width="85" height="45" viewBox="0 0 85 45" fill="none" xmlns="http://www.w3.org/2000/svg">
<rect x="1" y="1" width="83" height="43" rx="7" fill="white" stroke="#EEEDF8" stroke-width="2"/>
<path d="M39.6014 29.6886H36.1001L38.2884 16.2403H41.79L39.6014 29.6886ZM33.1547 16.2403L29.8167 25.4901L29.4217 23.4983L29.4221 23.499L28.2439 17.4512C28.2439 17.4512 28.1015 16.2403 26.5831 16.2403H21.0648L21 16.468C21 16.468 22.6875 16.8191 24.6624 18.0052L27.7043 29.6889H31.3524L36.9229 16.2403H33.1547ZM60.694 29.6886H63.9089L61.1059 16.2399H58.2913C56.9916 16.2399 56.6751 17.2422 56.6751 17.2422L51.4532 29.6886H55.103L55.8329 27.691H60.2839L60.694 29.6886ZM56.8413 24.9314L58.6809 19.8988L59.7159 24.9314H56.8413ZM51.7269 19.4743L52.2266 16.5864C52.2266 16.5864 50.6848 16 49.0775 16C47.34 16 43.2139 16.7594 43.2139 20.4521C43.2139 23.9264 48.0566 23.9695 48.0566 25.7944C48.0566 27.6194 43.7128 27.2924 42.2793 26.1416L41.7587 29.1612C41.7587 29.1612 43.3221 29.9206 45.7108 29.9206C48.1001 29.9206 51.7046 28.6835 51.7046 25.3164C51.7046 21.8198 46.8184 21.4942 46.8184 19.974C46.8187 18.4534 50.2287 18.6487 51.7269 19.4743Z" fill="#2566AF"/>
<path d="M29.4221 23.4988L28.2439 17.451C28.2439 17.451 28.1015 16.2401 26.5831 16.2401H21.0648L21 16.4678C21 16.4678 23.6523 17.0175 26.1963 19.077C28.6288 21.0454 29.4221 23.4988 29.4221 23.4988Z" fill="#E6A540"/>
</svg>
